<svg id="Group_46818" data-name="Group 46818" xmlns="http://www.w3.org/2000/svg" xmlns:xlink="http://www.w3.org/1999/xlink" width="239" height="87" viewBox="0 0 239 87">
  <defs>
    <linearGradient id="linear-gradient" x1="0.5" x2="0.5" y2="1" gradientUnits="objectBoundingBox">
      <stop offset="0" stop-color="#1898af"/>
      <stop offset="1" stop-color="#63bb4c"/>
    </linearGradient>
  </defs>
  <g id="Rectangle_20229" data-name="Rectangle 20229" fill="#fff" stroke="#ddd" stroke-width="1">
    <rect width="239" height="87" rx="8" stroke="none"/>
    <rect x="0.5" y="0.5" width="238" height="86" rx="7.5" fill="none"/>
  </g>
  <g id="Group_49468" data-name="Group 49468" transform="translate(18.859 17.877)">
    <path id="Path_116866" data-name="Path 116866" d="M52.091,76.72A24.886,24.886,0,1,1,76.951,51.833,24.873,24.873,0,0,1,52.091,76.72ZM41.468,58.769a4.1,4.1,0,0,0-.952.115l-.373.1-1.477,2.531A2.047,2.047,0,0,0,42.06,63.8l.154-.231,1.964-3.412a3.445,3.445,0,0,0-2.735-1.384ZM55.1,43.521a4.839,4.839,0,0,0-1.459,2.737,5.978,5.978,0,0,0,.746,4.2l7.558,13.105a2.043,2.043,0,0,0,3.657-1.8l-.122-.249L63.492,58.06H66.45a2.048,2.048,0,0,0,.249-4.079l-.249-.015H61.13l-5.454-9.457-.569-1ZM37.821,53.949a2.033,2.033,0,0,0-2.026,2.043,2.051,2.051,0,0,0,1.787,2.033l.249.012h18.6a2.889,2.889,0,0,0-.042-2.655,2.571,2.571,0,0,0-1.971-1.421l-.3-.015H47.77l8.771-15.2a2.048,2.048,0,0,0-3.394-2.277l-.154.229-.9,1.578L51.2,36.7a2.045,2.045,0,0,0-3.659,1.8l.122.249,2.063,3.633L43.049,53.949Z" transform="translate(-27.23 -26.47)" fill="url(#linear-gradient)"/>
    <path id="Path_116867" data-name="Path 116867" d="M55.83,58.435h3.432l1.961-5.011H71.682l1.934,5.011H77.1L68.468,37.109H64.518ZM66.452,40.323l4.058,10.132H62.421ZM94.511,51.109a7.684,7.684,0,0,0-1.988-5.2,6.452,6.452,0,0,0-5.148-2.288,6.686,6.686,0,0,0-2.642.6A4.68,4.68,0,0,0,82.5,46.152V43.891H79.341V65.6h3.241V56.311a4.708,4.708,0,0,0,2.179,1.77,6.952,6.952,0,0,0,2.533.572,6.665,6.665,0,0,0,5.175-2.233A7.634,7.634,0,0,0,94.511,51.109ZM83.726,47.868a4.077,4.077,0,0,1,3.16-1.335,3.981,3.981,0,0,1,3.132,1.335,4.97,4.97,0,0,1,0,6.537,4.05,4.05,0,0,1-3.132,1.307,4.15,4.15,0,0,1-3.16-1.307,5.056,5.056,0,0,1,0-6.537Zm29.325,3.241a7.684,7.684,0,0,0-1.988-5.2,6.452,6.452,0,0,0-5.148-2.288,6.687,6.687,0,0,0-2.642.6,4.68,4.68,0,0,0-2.233,1.934V43.891H97.879V65.6h3.241V56.311a4.707,4.707,0,0,0,2.179,1.77,6.951,6.951,0,0,0,2.533.572,6.665,6.665,0,0,0,5.175-2.233A7.634,7.634,0,0,0,113.05,51.109Zm-10.786-3.241a4.077,4.077,0,0,1,3.159-1.335,3.981,3.981,0,0,1,3.132,1.335,4.97,4.97,0,0,1,0,6.537,4.05,4.05,0,0,1-3.132,1.307,4.149,4.149,0,0,1-3.159-1.307,5.056,5.056,0,0,1,0-6.537ZM130.327,58.68a7.422,7.422,0,0,0,5.284-1.825,5.75,5.75,0,0,0,1.961-4.331,5.109,5.109,0,0,0-1.525-3.813,13.329,13.329,0,0,0-5.475-2.7c-2.615-.79-3.949-1.662-3.949-3.268,0-1.716,1.5-2.914,3.568-2.914a4.366,4.366,0,0,1,4.3,3l2.778-1.5a7.045,7.045,0,0,0-7-4.521,7.418,7.418,0,0,0-5.039,1.8,5.493,5.493,0,0,0-2.043,4.33,4.922,4.922,0,0,0,1.634,3.895,13.968,13.968,0,0,0,5.012,2.478c3.05.953,4.276,1.852,4.276,3.4,0,1.77-1.552,2.914-3.731,2.914a5.242,5.242,0,0,1-5.066-3.541l-2.833,1.471C123.681,56.828,126.6,58.68,130.327,58.68Zm18.514-11.875V43.891h-3.568V39.4h-3.241v4.494h-2.669v2.914h2.669v6.945c0,3.16,1.852,4.848,5.039,4.848a5.085,5.085,0,0,0,1.743-.3V55.548a4.611,4.611,0,0,1-1.035.109c-1.662,0-2.506-.681-2.506-2.424V46.806Zm9.867-3.214a7.591,7.591,0,0,0-5.448,2.179,7.532,7.532,0,0,0-.028,10.731,7.591,7.591,0,0,0,5.448,2.179A7.435,7.435,0,0,0,164.1,56.5a7.274,7.274,0,0,0,2.234-5.42,7.1,7.1,0,0,0-2.234-5.338A7.483,7.483,0,0,0,158.707,43.592Zm-3.188,4.276a4.079,4.079,0,0,1,3.16-1.335,3.98,3.98,0,0,1,3.132,1.335,4.682,4.682,0,0,1,1.227,3.268,4.79,4.79,0,0,1-1.2,3.268,3.983,3.983,0,0,1-3.132,1.335,4.1,4.1,0,0,1-3.16-1.362,4.8,4.8,0,0,1-1.225-3.3A4.6,4.6,0,0,1,155.519,47.868Zm22.154-4.031a2.9,2.9,0,0,0-.79-.082,4.321,4.321,0,0,0-4,2.451V43.891h-3.16V58.435h3.242V51.054c0-2.533,1.309-3.977,3.786-3.977a4.677,4.677,0,0,1,.926.082Zm15.793,8.28a8.745,8.745,0,0,0,.054-1.008,7.791,7.791,0,0,0-1.879-5.447,6.649,6.649,0,0,0-5.2-2.07A6.894,6.894,0,0,0,181.21,45.8a7.492,7.492,0,0,0-2.1,5.338,7.4,7.4,0,0,0,2.178,5.42,7.476,7.476,0,0,0,5.448,2.152,6.9,6.9,0,0,0,6.21-3.514l-2.342-1.552a4.105,4.105,0,0,1-3.924,2.261,4.439,4.439,0,0,1-2.94-1.062,3.582,3.582,0,0,1-1.307-2.724Zm-7.026-5.747a3.5,3.5,0,0,1,3.784,3.3H182.6A3.761,3.761,0,0,1,186.441,46.37Z" transform="translate(5.731 -15.103)" fill="#003c3c"/>
    <path id="Path_116868" data-name="Path 116868" d="M56.55,37.966h3.311A5.929,5.929,0,0,0,64.039,36.4a5.593,5.593,0,0,0,.043-7.972,5.791,5.791,0,0,0-4.221-1.592H56.55Zm1.165-10.032H59.8A4.669,4.669,0,0,1,63.229,29.2a4.616,4.616,0,0,1-.014,6.423,4.66,4.66,0,0,1-3.4,1.25h-2.1Zm20.727,4.433a5.487,5.487,0,0,0-1.606-4.007,5.306,5.306,0,0,0-3.965-1.634,5.369,5.369,0,0,0-4.007,1.648,5.618,5.618,0,0,0-1.606,4.064,5.53,5.53,0,0,0,1.591,4.021,5.7,5.7,0,0,0,7.986-.028A5.618,5.618,0,0,0,78.442,32.367Zm-1.208.071A4.579,4.579,0,0,1,76,35.664a4.09,4.09,0,0,1-3.126,1.322,4.147,4.147,0,0,1-3.155-1.35,4.608,4.608,0,0,1-1.25-3.268A4.521,4.521,0,0,1,69.7,29.155a4.053,4.053,0,0,1,3.126-1.336,4.147,4.147,0,0,1,3.155,1.35A4.608,4.608,0,0,1,77.234,32.438Zm2.366-5.6,3.482,11.127h1.279l2.984-9.549,2.97,9.549h1.307l3.5-11.127H93.939l-2.927,9.493h-.028l-2.956-9.493H86.706l-2.941,9.436h-.028l-2.913-9.436Zm26.523,0h-1.151v9.294l-6.565-9.294h-1.35V37.966h1.151V28.487l6.665,9.478h1.25Zm4.269,0h-1.165V37.966h6.437V36.871h-5.272Zm16.8,5.528a5.487,5.487,0,0,0-1.606-4.007,5.306,5.306,0,0,0-3.965-1.634,5.369,5.369,0,0,0-4.007,1.648,5.618,5.618,0,0,0-1.606,4.064,5.531,5.531,0,0,0,1.592,4.021,5.7,5.7,0,0,0,7.986-.028A5.618,5.618,0,0,0,127.193,32.367Zm-1.208.071a4.579,4.579,0,0,1-1.236,3.226,4.09,4.09,0,0,1-3.126,1.322,4.147,4.147,0,0,1-3.155-1.35,4.608,4.608,0,0,1-1.25-3.268,4.521,4.521,0,0,1,1.236-3.211,4.053,4.053,0,0,1,3.126-1.336,4.147,4.147,0,0,1,3.155,1.35A4.608,4.608,0,0,1,125.985,32.438Zm4.427,2.686h6.068l1.208,2.842h1.236l-4.8-11.127H132.8L128,37.966h1.194Zm.441-1.066,2.586-6.011,2.586,6.011Zm9.668,3.908h3.311A5.929,5.929,0,0,0,148.01,36.4a5.593,5.593,0,0,0,.043-7.972,5.791,5.791,0,0,0-4.221-1.592h-3.311Zm1.165-10.032h2.089A4.669,4.669,0,0,1,147.2,29.2a4.616,4.616,0,0,1-.014,6.423,4.66,4.66,0,0,1-3.4,1.25h-2.1Zm24.7,4.433a5.488,5.488,0,0,0-1.606-4.007,5.306,5.306,0,0,0-3.965-1.634,5.37,5.37,0,0,0-4.008,1.648,5.619,5.619,0,0,0-1.606,4.064,5.524,5.524,0,0,0,1.593,4.021,5.7,5.7,0,0,0,7.986-.028A5.619,5.619,0,0,0,166.383,32.367Zm-1.208.071a4.58,4.58,0,0,1-1.238,3.226,4.091,4.091,0,0,1-3.126,1.322,4.149,4.149,0,0,1-3.156-1.35,4.613,4.613,0,0,1-1.251-3.268,4.521,4.521,0,0,1,1.238-3.211,4.054,4.054,0,0,1,3.126-1.336,4.149,4.149,0,0,1,3.156,1.35A4.613,4.613,0,0,1,165.175,32.438Zm12.582-5.6h-1.149v9.294l-6.565-9.294h-1.35V37.966h1.149V28.487l6.664,9.478h1.251Z" transform="translate(6.563 -26.725)" fill="#003c3c"/>
  </g>
</svg>
